# xmcd CD database file
#
# Track frame offsets:
#	187
#	19782
#	37712
#	60082
#	76275
#	92632
#	107475
#	121835
#	138910
#	153607
#
# Disc length: 2243 seconds
#
# Revision: 14
# Processed by: cddbd v1.5.2PL0 Copyright (c) Steve Scherf et al.
# Submitted via: CDex 1.51
#
DISCID=6708c10a
DTITLE=Reba McEntire - Greatest Hits, Volume.2
DYEAR=1993
DGENRE=Country
TTITLE0=Does He Love You (Duet With Linda Davis)
TTITLE1=You Lie
TTITLE2=Fancy
TTITLE3=For My Broken Heart
TTITLE4=Love Will Find Its Way To You
TTITLE5=They Asked About You
TTITLE6=Is There Life Out There
TTITLE7=Rumor Has It
TTITLE8=Walk On
TTITLE9=The Greatest Man I Never Knew
EXTD=YEAR: 1993
EXTT0=
EXTT1=
EXTT2=
EXTT3=
EXTT4=
EXTT5=
EXTT6=
EXTT7=
EXTT8=
EXTT9=
PLAYORDER=
